<mxfile host="app.diagrams.net" agent="Mozilla/5.0 (Windows NT 10.0; Win64; x64) AppleWebKit/537.36 (KHTML, like Gecko) Chrome/122.0.0.0 Safari/537.36" version="26.1.0">
  <diagram name="Page-1" id="gbmH-THoJP-ifdcam4NF">
    <mxGraphModel dx="1050" dy="522" grid="1" gridSize="10" guides="1" tooltips="1" connect="1" arrows="1" fold="1" page="1" pageScale="1" pageWidth="3000" pageHeight="3000" math="0" shadow="0">
      <root>
        <mxCell id="0" />
        <mxCell id="1" parent="0" />
        <mxCell id="fJM_3uWOo-8UuLEOxcHD-1" value="" style="rounded=0;whiteSpace=wrap;html=1;rotation=90;fillColor=#dae8fc;strokeColor=#6c8ebf;align=center;" parent="1" vertex="1">
          <mxGeometry x="-586.58" y="789.91" width="2101.29" height="611.5" as="geometry" />
        </mxCell>
        <mxCell id="fJM_3uWOo-8UuLEOxcHD-2" value="&lt;font style=&quot;font-size: 10px;&quot;&gt;Utilisateur&lt;/font&gt;&lt;div&gt;Chauffeur&lt;/div&gt;" style="shape=umlActor;verticalLabelPosition=bottom;verticalAlign=top;html=1;outlineConnect=0;" parent="1" vertex="1">
          <mxGeometry x="71.80999999999999" y="1138" width="55" height="110" as="geometry" />
        </mxCell>
        <mxCell id="fJM_3uWOo-8UuLEOxcHD-3" value="" style="strokeWidth=1;html=1;shape=mxgraph.flowchart.annotation_2;align=left;labelPosition=right;pointerEvents=1;" parent="1" vertex="1">
          <mxGeometry x="141.81" y="948" width="130" height="490" as="geometry" />
        </mxCell>
        <mxCell id="fJM_3uWOo-8UuLEOxcHD-4" value="" style="endArrow=none;html=1;rounded=0;entryX=0.999;entryY=0.193;entryDx=0;entryDy=0;entryPerimeter=0;" parent="1" edge="1">
          <mxGeometry width="50" height="50" relative="1" as="geometry">
            <mxPoint x="206.81" y="1134.77" as="sourcePoint" />
            <mxPoint x="271.81" y="1134.77" as="targetPoint" />
          </mxGeometry>
        </mxCell>
        <mxCell id="fJM_3uWOo-8UuLEOxcHD-5" value="" style="endArrow=none;html=1;rounded=0;entryX=0.999;entryY=0.193;entryDx=0;entryDy=0;entryPerimeter=0;" parent="1" edge="1">
          <mxGeometry width="50" height="50" relative="1" as="geometry">
            <mxPoint x="206.81" y="1194.77" as="sourcePoint" />
            <mxPoint x="271.81" y="1194.77" as="targetPoint" />
          </mxGeometry>
        </mxCell>
        <mxCell id="fJM_3uWOo-8UuLEOxcHD-6" value="" style="endArrow=none;html=1;rounded=0;entryX=0.999;entryY=0.193;entryDx=0;entryDy=0;entryPerimeter=0;" parent="1" edge="1">
          <mxGeometry width="50" height="50" relative="1" as="geometry">
            <mxPoint x="206.81" y="1072" as="sourcePoint" />
            <mxPoint x="271.81" y="1072" as="targetPoint" />
          </mxGeometry>
        </mxCell>
        <mxCell id="fJM_3uWOo-8UuLEOxcHD-7" value="&lt;font style=&quot;font-size: 10px;&quot;&gt;Utilisateur&lt;/font&gt;&lt;div&gt;Visiteur&lt;/div&gt;" style="shape=umlActor;verticalLabelPosition=bottom;verticalAlign=top;html=1;outlineConnect=0;" parent="1" vertex="1">
          <mxGeometry x="71.80999999999999" y="411.5" width="55" height="110" as="geometry" />
        </mxCell>
        <mxCell id="fJM_3uWOo-8UuLEOxcHD-8" value="" style="strokeWidth=1;html=1;shape=mxgraph.flowchart.annotation_2;align=left;labelPosition=right;pointerEvents=1;" parent="1" vertex="1">
          <mxGeometry x="141.81" y="143" width="130" height="647" as="geometry" />
        </mxCell>
        <mxCell id="fJM_3uWOo-8UuLEOxcHD-9" value="" style="endArrow=none;html=1;rounded=0;entryX=0.999;entryY=0.193;entryDx=0;entryDy=0;entryPerimeter=0;" parent="1" edge="1">
          <mxGeometry width="50" height="50" relative="1" as="geometry">
            <mxPoint x="206.81" y="216" as="sourcePoint" />
            <mxPoint x="271.81" y="216" as="targetPoint" />
          </mxGeometry>
        </mxCell>
        <mxCell id="fJM_3uWOo-8UuLEOxcHD-10" value="&lt;font style=&quot;font-size: 14px;&quot;&gt;Diagramme de cas d&#39;utilisation - EcoRide&lt;/font&gt;" style="text;html=1;align=center;verticalAlign=middle;resizable=0;points=[];autosize=1;strokeColor=none;fillColor=none;" parent="1" vertex="1">
          <mxGeometry x="325.06" y="68" width="280" height="30" as="geometry" />
        </mxCell>
        <mxCell id="fJM_3uWOo-8UuLEOxcHD-11" value="" style="endArrow=none;html=1;rounded=0;entryX=0.999;entryY=0.193;entryDx=0;entryDy=0;entryPerimeter=0;" parent="1" edge="1">
          <mxGeometry width="50" height="50" relative="1" as="geometry">
            <mxPoint x="207.3" y="290.91" as="sourcePoint" />
            <mxPoint x="272.3" y="290.91" as="targetPoint" />
          </mxGeometry>
        </mxCell>
        <mxCell id="fJM_3uWOo-8UuLEOxcHD-12" value="" style="group" parent="1" vertex="1" connectable="0">
          <mxGeometry x="271.81" y="339" width="224.25" height="54" as="geometry" />
        </mxCell>
        <mxCell id="fJM_3uWOo-8UuLEOxcHD-13" value="" style="ellipse;whiteSpace=wrap;html=1;verticalAlign=middle;" parent="fJM_3uWOo-8UuLEOxcHD-12" vertex="1">
          <mxGeometry width="224.25" height="54" as="geometry" />
        </mxCell>
        <mxCell id="fJM_3uWOo-8UuLEOxcHD-14" value="Voir les détails de l&#39;itinéraire" style="text;html=1;align=center;verticalAlign=middle;resizable=0;points=[];autosize=1;strokeColor=none;fillColor=none;" parent="fJM_3uWOo-8UuLEOxcHD-12" vertex="1">
          <mxGeometry x="28.120000000000005" y="12" width="170" height="30" as="geometry" />
        </mxCell>
        <mxCell id="fJM_3uWOo-8UuLEOxcHD-15" value="" style="group" parent="1" vertex="1" connectable="0">
          <mxGeometry x="271.81" y="264" width="224.25" height="54" as="geometry" />
        </mxCell>
        <mxCell id="fJM_3uWOo-8UuLEOxcHD-16" value="" style="ellipse;whiteSpace=wrap;html=1;verticalAlign=middle;" parent="fJM_3uWOo-8UuLEOxcHD-15" vertex="1">
          <mxGeometry width="224.25" height="54" as="geometry" />
        </mxCell>
        <mxCell id="fJM_3uWOo-8UuLEOxcHD-17" value="Filtrer les itinéraires" style="text;html=1;align=center;verticalAlign=middle;resizable=0;points=[];autosize=1;strokeColor=none;fillColor=none;" parent="fJM_3uWOo-8UuLEOxcHD-15" vertex="1">
          <mxGeometry x="48.120000000000005" y="12" width="130" height="30" as="geometry" />
        </mxCell>
        <mxCell id="fJM_3uWOo-8UuLEOxcHD-18" value="" style="group" parent="1" vertex="1" connectable="0">
          <mxGeometry x="271.81" y="189.5" width="224.25" height="54" as="geometry" />
        </mxCell>
        <mxCell id="fJM_3uWOo-8UuLEOxcHD-19" value="" style="ellipse;whiteSpace=wrap;html=1;verticalAlign=middle;" parent="fJM_3uWOo-8UuLEOxcHD-18" vertex="1">
          <mxGeometry width="224.25" height="54" as="geometry" />
        </mxCell>
        <mxCell id="fJM_3uWOo-8UuLEOxcHD-20" value="Consulter les itinéraires" style="text;html=1;align=center;verticalAlign=middle;resizable=0;points=[];autosize=1;strokeColor=none;fillColor=none;" parent="fJM_3uWOo-8UuLEOxcHD-18" vertex="1">
          <mxGeometry x="37.625" y="12.5" width="150" height="30" as="geometry" />
        </mxCell>
        <mxCell id="fJM_3uWOo-8UuLEOxcHD-21" value="" style="group" parent="1" vertex="1" connectable="0">
          <mxGeometry x="271.81" y="116" width="224.25" height="54" as="geometry" />
        </mxCell>
        <mxCell id="fJM_3uWOo-8UuLEOxcHD-22" value="" style="ellipse;whiteSpace=wrap;html=1;verticalAlign=middle;" parent="fJM_3uWOo-8UuLEOxcHD-21" vertex="1">
          <mxGeometry width="224.25" height="54" as="geometry" />
        </mxCell>
        <mxCell id="fJM_3uWOo-8UuLEOxcHD-23" value="Rechercher un itinéraire" style="text;html=1;align=center;verticalAlign=middle;resizable=0;points=[];autosize=1;strokeColor=none;fillColor=none;" parent="fJM_3uWOo-8UuLEOxcHD-21" vertex="1">
          <mxGeometry x="38.120000000000005" y="12" width="150" height="30" as="geometry" />
        </mxCell>
        <mxCell id="fJM_3uWOo-8UuLEOxcHD-28" value="&lt;font style=&quot;font-size: 9px;&quot;&gt;&amp;lt;&amp;lt;&lt;/font&gt;&lt;font style=&quot;font-size: 11px;&quot;&gt;include&lt;/font&gt;&lt;font style=&quot;font-size: 9px;&quot;&gt;&amp;gt;&amp;gt;&lt;/font&gt;" style="text;html=1;align=center;verticalAlign=middle;resizable=0;points=[];autosize=1;strokeColor=none;fillColor=none;" parent="1" vertex="1">
          <mxGeometry x="531.06" y="411" width="74" height="26" as="geometry" />
        </mxCell>
        <mxCell id="fJM_3uWOo-8UuLEOxcHD-29" value="" style="group" parent="1" vertex="1" connectable="0">
          <mxGeometry x="272.06" y="921" width="224.25" height="54" as="geometry" />
        </mxCell>
        <mxCell id="fJM_3uWOo-8UuLEOxcHD-30" value="" style="ellipse;whiteSpace=wrap;html=1;verticalAlign=middle;" parent="fJM_3uWOo-8UuLEOxcHD-29" vertex="1">
          <mxGeometry width="224.25" height="54" as="geometry" />
        </mxCell>
        <mxCell id="fJM_3uWOo-8UuLEOxcHD-31" value="Définir si on est chauffeur ou&amp;nbsp;&lt;div&gt;chauffeur/passager&lt;/div&gt;" style="text;html=1;align=center;verticalAlign=middle;resizable=0;points=[];autosize=1;strokeColor=none;fillColor=none;" parent="fJM_3uWOo-8UuLEOxcHD-29" vertex="1">
          <mxGeometry x="23.120000000000005" y="8" width="180" height="40" as="geometry" />
        </mxCell>
        <mxCell id="fJM_3uWOo-8UuLEOxcHD-32" value="" style="endArrow=none;html=1;rounded=0;entryX=0.999;entryY=0.193;entryDx=0;entryDy=0;entryPerimeter=0;" parent="1" edge="1">
          <mxGeometry width="50" height="50" relative="1" as="geometry">
            <mxPoint x="206.81" y="1009.73" as="sourcePoint" />
            <mxPoint x="271.81" y="1009.73" as="targetPoint" />
          </mxGeometry>
        </mxCell>
        <mxCell id="fJM_3uWOo-8UuLEOxcHD-33" value="" style="group" parent="1" vertex="1" connectable="0">
          <mxGeometry x="272.06" y="983" width="224.25" height="54" as="geometry" />
        </mxCell>
        <mxCell id="fJM_3uWOo-8UuLEOxcHD-34" value="" style="ellipse;whiteSpace=wrap;html=1;verticalAlign=middle;" parent="fJM_3uWOo-8UuLEOxcHD-33" vertex="1">
          <mxGeometry width="224.25" height="54" as="geometry" />
        </mxCell>
        <mxCell id="fJM_3uWOo-8UuLEOxcHD-35" value="Rentrer les informations du véhicule" style="text;html=1;align=center;verticalAlign=middle;resizable=0;points=[];autosize=1;strokeColor=none;fillColor=none;" parent="fJM_3uWOo-8UuLEOxcHD-33" vertex="1">
          <mxGeometry x="9.120000000000005" y="13" width="210" height="30" as="geometry" />
        </mxCell>
        <mxCell id="fJM_3uWOo-8UuLEOxcHD-36" value="" style="group" parent="1" vertex="1" connectable="0">
          <mxGeometry x="272.06" y="1045" width="224.25" height="54" as="geometry" />
        </mxCell>
        <mxCell id="fJM_3uWOo-8UuLEOxcHD-37" value="" style="ellipse;whiteSpace=wrap;html=1;verticalAlign=middle;" parent="fJM_3uWOo-8UuLEOxcHD-36" vertex="1">
          <mxGeometry width="224.25" height="54" as="geometry" />
        </mxCell>
        <mxCell id="fJM_3uWOo-8UuLEOxcHD-38" value="Ajouter ses préférences" style="text;html=1;align=center;verticalAlign=middle;resizable=0;points=[];autosize=1;strokeColor=none;fillColor=none;" parent="fJM_3uWOo-8UuLEOxcHD-36" vertex="1">
          <mxGeometry x="39.120000000000005" y="13" width="150" height="30" as="geometry" />
        </mxCell>
        <mxCell id="fJM_3uWOo-8UuLEOxcHD-39" value="" style="group" parent="1" vertex="1" connectable="0">
          <mxGeometry x="272.06" y="1106" width="224.25" height="54" as="geometry" />
        </mxCell>
        <mxCell id="fJM_3uWOo-8UuLEOxcHD-40" value="" style="ellipse;whiteSpace=wrap;html=1;verticalAlign=middle;" parent="fJM_3uWOo-8UuLEOxcHD-39" vertex="1">
          <mxGeometry width="224.25" height="54" as="geometry" />
        </mxCell>
        <mxCell id="fJM_3uWOo-8UuLEOxcHD-41" value="Définir les itinéraires" style="text;html=1;align=center;verticalAlign=middle;resizable=0;points=[];autosize=1;strokeColor=none;fillColor=none;" parent="fJM_3uWOo-8UuLEOxcHD-39" vertex="1">
          <mxGeometry x="50.120000000000005" y="13" width="130" height="30" as="geometry" />
        </mxCell>
        <mxCell id="fJM_3uWOo-8UuLEOxcHD-42" value="" style="group" parent="1" vertex="1" connectable="0">
          <mxGeometry x="272.06" y="1168" width="224.25" height="54" as="geometry" />
        </mxCell>
        <mxCell id="fJM_3uWOo-8UuLEOxcHD-43" value="" style="ellipse;whiteSpace=wrap;html=1;verticalAlign=middle;" parent="fJM_3uWOo-8UuLEOxcHD-42" vertex="1">
          <mxGeometry width="224.25" height="54" as="geometry" />
        </mxCell>
        <mxCell id="fJM_3uWOo-8UuLEOxcHD-44" value="Définir le prix du voyage" style="text;html=1;align=center;verticalAlign=middle;resizable=0;points=[];autosize=1;strokeColor=none;fillColor=none;" parent="fJM_3uWOo-8UuLEOxcHD-42" vertex="1">
          <mxGeometry x="40.120000000000005" y="13" width="150" height="30" as="geometry" />
        </mxCell>
        <mxCell id="fJM_3uWOo-8UuLEOxcHD-45" value="" style="group" parent="1" vertex="1" connectable="0">
          <mxGeometry x="272.06" y="1230" width="224.25" height="54" as="geometry" />
        </mxCell>
        <mxCell id="fJM_3uWOo-8UuLEOxcHD-46" value="" style="ellipse;whiteSpace=wrap;html=1;verticalAlign=middle;" parent="fJM_3uWOo-8UuLEOxcHD-45" vertex="1">
          <mxGeometry width="224.25" height="54" as="geometry" />
        </mxCell>
        <mxCell id="fJM_3uWOo-8UuLEOxcHD-47" value="Si plusieurs véhicules, en choisir&lt;div&gt;un pour le voyage&lt;/div&gt;" style="text;html=1;align=center;verticalAlign=middle;resizable=0;points=[];autosize=1;strokeColor=none;fillColor=none;" parent="fJM_3uWOo-8UuLEOxcHD-45" vertex="1">
          <mxGeometry x="15.120000000000005" y="8" width="200" height="40" as="geometry" />
        </mxCell>
        <mxCell id="fJM_3uWOo-8UuLEOxcHD-48" value="" style="endArrow=none;dashed=1;html=1;dashPattern=1 3;strokeWidth=2;rounded=0;exitX=1;exitY=0.5;exitDx=0;exitDy=0;entryX=0;entryY=0;entryDx=0;entryDy=0;" parent="1" source="fJM_3uWOo-8UuLEOxcHD-30" target="fJM_3uWOo-8UuLEOxcHD-49" edge="1">
          <mxGeometry width="50" height="50" relative="1" as="geometry">
            <mxPoint x="496.30999999999995" y="943" as="sourcePoint" />
            <mxPoint x="628.31" y="971" as="targetPoint" />
          </mxGeometry>
        </mxCell>
        <mxCell id="fJM_3uWOo-8UuLEOxcHD-49" value="S&#39;authentifier" style="ellipse;whiteSpace=wrap;html=1;" parent="1" vertex="1">
          <mxGeometry x="630.06" y="1063" width="120" height="80" as="geometry" />
        </mxCell>
        <mxCell id="fJM_3uWOo-8UuLEOxcHD-50" value="&lt;font style=&quot;font-size: 9px;&quot;&gt;&amp;lt;&amp;lt;&lt;/font&gt;&lt;font style=&quot;font-size: 11px;&quot;&gt;include&lt;/font&gt;&lt;font style=&quot;font-size: 9px;&quot;&gt;&amp;gt;&amp;gt;&lt;/font&gt;" style="text;html=1;align=center;verticalAlign=middle;resizable=0;points=[];autosize=1;strokeColor=none;fillColor=none;" parent="1" vertex="1">
          <mxGeometry x="583.06" y="993" width="74" height="26" as="geometry" />
        </mxCell>
        <mxCell id="fJM_3uWOo-8UuLEOxcHD-51" value="" style="endArrow=none;html=1;rounded=0;entryX=0.999;entryY=0.193;entryDx=0;entryDy=0;entryPerimeter=0;" parent="1" edge="1">
          <mxGeometry width="50" height="50" relative="1" as="geometry">
            <mxPoint x="206.81" y="365.17" as="sourcePoint" />
            <mxPoint x="271.81" y="365.17" as="targetPoint" />
          </mxGeometry>
        </mxCell>
        <mxCell id="fJM_3uWOo-8UuLEOxcHD-52" value="" style="group" parent="1" vertex="1" connectable="0">
          <mxGeometry x="271.81" y="413" width="224.25" height="54" as="geometry" />
        </mxCell>
        <mxCell id="fJM_3uWOo-8UuLEOxcHD-53" value="" style="ellipse;whiteSpace=wrap;html=1;verticalAlign=middle;" parent="fJM_3uWOo-8UuLEOxcHD-52" vertex="1">
          <mxGeometry width="224.25" height="54" as="geometry" />
        </mxCell>
        <mxCell id="fJM_3uWOo-8UuLEOxcHD-54" value="Participer à un itinéraire" style="text;html=1;align=center;verticalAlign=middle;resizable=0;points=[];autosize=1;strokeColor=none;fillColor=none;" parent="fJM_3uWOo-8UuLEOxcHD-52" vertex="1">
          <mxGeometry x="38.120000000000005" y="12" width="150" height="30" as="geometry" />
        </mxCell>
        <mxCell id="fJM_3uWOo-8UuLEOxcHD-55" value="" style="endArrow=none;dashed=1;html=1;dashPattern=1 3;strokeWidth=2;rounded=0;entryX=1;entryY=0.5;entryDx=0;entryDy=0;exitX=0;exitY=0;exitDx=0;exitDy=0;" parent="1" source="fJM_3uWOo-8UuLEOxcHD-64" target="fJM_3uWOo-8UuLEOxcHD-53" edge="1">
          <mxGeometry width="50" height="50" relative="1" as="geometry">
            <mxPoint x="625.06" y="417" as="sourcePoint" />
            <mxPoint x="501.05999999999995" y="433" as="targetPoint" />
          </mxGeometry>
        </mxCell>
        <mxCell id="fJM_3uWOo-8UuLEOxcHD-58" value="" style="endArrow=none;html=1;rounded=0;entryX=0.999;entryY=0.193;entryDx=0;entryDy=0;entryPerimeter=0;" parent="1" edge="1">
          <mxGeometry width="50" height="50" relative="1" as="geometry">
            <mxPoint x="206.81" y="441" as="sourcePoint" />
            <mxPoint x="271.81" y="441" as="targetPoint" />
          </mxGeometry>
        </mxCell>
        <mxCell id="fJM_3uWOo-8UuLEOxcHD-59" value="&lt;font style=&quot;font-size: 9px;&quot;&gt;&amp;lt;&amp;lt;&lt;/font&gt;&lt;font style=&quot;font-size: 11px;&quot;&gt;include&lt;/font&gt;&lt;font style=&quot;font-size: 9px;&quot;&gt;&amp;gt;&amp;gt;&lt;/font&gt;" style="text;html=1;align=center;verticalAlign=middle;resizable=0;points=[];autosize=1;strokeColor=none;fillColor=none;" parent="1" vertex="1">
          <mxGeometry x="529.25" y="511" width="74" height="26" as="geometry" />
        </mxCell>
        <mxCell id="fJM_3uWOo-8UuLEOxcHD-60" value="" style="group" parent="1" vertex="1" connectable="0">
          <mxGeometry x="272" y="484" width="224.25" height="54" as="geometry" />
        </mxCell>
        <mxCell id="fJM_3uWOo-8UuLEOxcHD-61" value="" style="ellipse;whiteSpace=wrap;html=1;verticalAlign=middle;" parent="fJM_3uWOo-8UuLEOxcHD-60" vertex="1">
          <mxGeometry width="224.25" height="54" as="geometry" />
        </mxCell>
        <mxCell id="fJM_3uWOo-8UuLEOxcHD-62" value="Obtenir 20 crédits" style="text;html=1;align=center;verticalAlign=middle;resizable=0;points=[];autosize=1;strokeColor=none;fillColor=none;" parent="fJM_3uWOo-8UuLEOxcHD-60" vertex="1">
          <mxGeometry x="53.120000000000005" y="12" width="120" height="30" as="geometry" />
        </mxCell>
        <mxCell id="fJM_3uWOo-8UuLEOxcHD-63" value="" style="endArrow=none;dashed=1;html=1;dashPattern=1 3;strokeWidth=2;rounded=0;entryX=1;entryY=0.5;entryDx=0;entryDy=0;" parent="1" target="fJM_3uWOo-8UuLEOxcHD-61" edge="1">
          <mxGeometry width="50" height="50" relative="1" as="geometry">
            <mxPoint x="623.25" y="487" as="sourcePoint" />
            <mxPoint x="499.24999999999994" y="503" as="targetPoint" />
          </mxGeometry>
        </mxCell>
        <mxCell id="fJM_3uWOo-8UuLEOxcHD-65" value="" style="group" parent="1" vertex="1" connectable="0">
          <mxGeometry x="272" y="555" width="224.25" height="54" as="geometry" />
        </mxCell>
        <mxCell id="fJM_3uWOo-8UuLEOxcHD-66" value="" style="ellipse;whiteSpace=wrap;html=1;verticalAlign=middle;" parent="fJM_3uWOo-8UuLEOxcHD-65" vertex="1">
          <mxGeometry width="224.25" height="54" as="geometry" />
        </mxCell>
        <mxCell id="fJM_3uWOo-8UuLEOxcHD-67" value="Définir si on est chauffeur ou&amp;nbsp;&lt;div&gt;chauffeur/passager&lt;/div&gt;" style="text;html=1;align=center;verticalAlign=middle;resizable=0;points=[];autosize=1;strokeColor=none;fillColor=none;" parent="fJM_3uWOo-8UuLEOxcHD-65" vertex="1">
          <mxGeometry x="23.120000000000005" y="8" width="180" height="40" as="geometry" />
        </mxCell>
        <mxCell id="fJM_3uWOo-8UuLEOxcHD-68" value="" style="group" parent="1" vertex="1" connectable="0">
          <mxGeometry x="272" y="625" width="224.25" height="54" as="geometry" />
        </mxCell>
        <mxCell id="fJM_3uWOo-8UuLEOxcHD-69" value="" style="ellipse;whiteSpace=wrap;html=1;verticalAlign=middle;" parent="fJM_3uWOo-8UuLEOxcHD-68" vertex="1">
          <mxGeometry width="224.25" height="54" as="geometry" />
        </mxCell>
        <mxCell id="fJM_3uWOo-8UuLEOxcHD-70" value="Visionner l&#39;historique des&lt;div&gt;covoiturages&lt;/div&gt;" style="text;html=1;align=center;verticalAlign=middle;resizable=0;points=[];autosize=1;strokeColor=none;fillColor=none;" parent="fJM_3uWOo-8UuLEOxcHD-68" vertex="1">
          <mxGeometry x="33.120000000000005" y="8" width="160" height="40" as="geometry" />
        </mxCell>
        <mxCell id="fJM_3uWOo-8UuLEOxcHD-71" value="" style="group" parent="1" vertex="1" connectable="0">
          <mxGeometry x="272" y="1351" width="224.25" height="54" as="geometry" />
        </mxCell>
        <mxCell id="fJM_3uWOo-8UuLEOxcHD-72" value="" style="ellipse;whiteSpace=wrap;html=1;verticalAlign=middle;" parent="fJM_3uWOo-8UuLEOxcHD-71" vertex="1">
          <mxGeometry width="224.25" height="54" as="geometry" />
        </mxCell>
        <mxCell id="fJM_3uWOo-8UuLEOxcHD-73" value="Annuler un voyage" style="text;html=1;align=center;verticalAlign=middle;resizable=0;points=[];autosize=1;strokeColor=none;fillColor=none;" parent="fJM_3uWOo-8UuLEOxcHD-71" vertex="1">
          <mxGeometry x="53.120000000000005" y="13" width="120" height="30" as="geometry" />
        </mxCell>
        <mxCell id="fJM_3uWOo-8UuLEOxcHD-74" value="" style="group" parent="1" vertex="1" connectable="0">
          <mxGeometry x="271.81" y="693" width="224.25" height="54" as="geometry" />
        </mxCell>
        <mxCell id="fJM_3uWOo-8UuLEOxcHD-75" value="" style="ellipse;whiteSpace=wrap;html=1;verticalAlign=middle;" parent="fJM_3uWOo-8UuLEOxcHD-74" vertex="1">
          <mxGeometry width="224.25" height="54" as="geometry" />
        </mxCell>
        <mxCell id="fJM_3uWOo-8UuLEOxcHD-76" value="Annuler un voyage" style="text;html=1;align=center;verticalAlign=middle;resizable=0;points=[];autosize=1;strokeColor=none;fillColor=none;" parent="fJM_3uWOo-8UuLEOxcHD-74" vertex="1">
          <mxGeometry x="53.120000000000005" y="13" width="120" height="30" as="geometry" />
        </mxCell>
        <mxCell id="fJM_3uWOo-8UuLEOxcHD-77" value="" style="group" parent="1" vertex="1" connectable="0">
          <mxGeometry x="272" y="1291" width="224.25" height="54" as="geometry" />
        </mxCell>
        <mxCell id="fJM_3uWOo-8UuLEOxcHD-78" value="" style="ellipse;whiteSpace=wrap;html=1;verticalAlign=middle;" parent="fJM_3uWOo-8UuLEOxcHD-77" vertex="1">
          <mxGeometry width="224.25" height="54" as="geometry" />
        </mxCell>
        <mxCell id="fJM_3uWOo-8UuLEOxcHD-79" value="Visionner l&#39;historique des&lt;div&gt;covoiturages&lt;/div&gt;" style="text;html=1;align=center;verticalAlign=middle;resizable=0;points=[];autosize=1;strokeColor=none;fillColor=none;" parent="fJM_3uWOo-8UuLEOxcHD-77" vertex="1">
          <mxGeometry x="33.120000000000005" y="8" width="160" height="40" as="geometry" />
        </mxCell>
        <mxCell id="fJM_3uWOo-8UuLEOxcHD-80" value="" style="group" parent="1" vertex="1" connectable="0">
          <mxGeometry x="270" y="1411" width="224.25" height="54" as="geometry" />
        </mxCell>
        <mxCell id="fJM_3uWOo-8UuLEOxcHD-81" value="" style="ellipse;whiteSpace=wrap;html=1;verticalAlign=middle;" parent="fJM_3uWOo-8UuLEOxcHD-80" vertex="1">
          <mxGeometry width="224.25" height="54" as="geometry" />
        </mxCell>
        <mxCell id="fJM_3uWOo-8UuLEOxcHD-82" value="Démarrer/Arrivée à destination&lt;div&gt;du covoiturage&lt;/div&gt;" style="text;html=1;align=center;verticalAlign=middle;resizable=0;points=[];autosize=1;strokeColor=none;fillColor=none;" parent="fJM_3uWOo-8UuLEOxcHD-80" vertex="1">
          <mxGeometry x="18.120000000000005" y="8" width="190" height="40" as="geometry" />
        </mxCell>
        <mxCell id="fJM_3uWOo-8UuLEOxcHD-83" value="" style="group" parent="1" vertex="1" connectable="0">
          <mxGeometry x="270" y="763" width="224.25" height="54" as="geometry" />
        </mxCell>
        <mxCell id="fJM_3uWOo-8UuLEOxcHD-84" value="" style="ellipse;whiteSpace=wrap;html=1;verticalAlign=middle;" parent="fJM_3uWOo-8UuLEOxcHD-83" vertex="1">
          <mxGeometry width="224.25" height="54" as="geometry" />
        </mxCell>
        <mxCell id="fJM_3uWOo-8UuLEOxcHD-85" value="Donner un avis" style="text;html=1;align=center;verticalAlign=middle;resizable=0;points=[];autosize=1;strokeColor=none;fillColor=none;" parent="fJM_3uWOo-8UuLEOxcHD-83" vertex="1">
          <mxGeometry x="63.120000000000005" y="13" width="100" height="30" as="geometry" />
        </mxCell>
        <mxCell id="fJM_3uWOo-8UuLEOxcHD-86" value="&lt;font style=&quot;font-size: 10px;&quot;&gt;Utilisateur&lt;/font&gt;&lt;div&gt;Employé&lt;/div&gt;" style="shape=umlActor;verticalLabelPosition=bottom;verticalAlign=top;html=1;outlineConnect=0;" parent="1" vertex="1">
          <mxGeometry x="71.80999999999999" y="1521.5" width="55" height="110" as="geometry" />
        </mxCell>
        <mxCell id="fJM_3uWOo-8UuLEOxcHD-87" value="" style="strokeWidth=1;html=1;shape=mxgraph.flowchart.annotation_2;align=left;labelPosition=right;pointerEvents=1;" parent="1" vertex="1">
          <mxGeometry x="141.81" y="1545" width="130" height="63" as="geometry" />
        </mxCell>
        <mxCell id="fJM_3uWOo-8UuLEOxcHD-88" value="" style="group" parent="1" vertex="1" connectable="0">
          <mxGeometry x="272.06" y="1518" width="224.25" height="54" as="geometry" />
        </mxCell>
        <mxCell id="fJM_3uWOo-8UuLEOxcHD-89" value="" style="ellipse;whiteSpace=wrap;html=1;verticalAlign=middle;" parent="fJM_3uWOo-8UuLEOxcHD-88" vertex="1">
          <mxGeometry width="224.25" height="54" as="geometry" />
        </mxCell>
        <mxCell id="fJM_3uWOo-8UuLEOxcHD-90" value="Valider les avis" style="text;html=1;align=center;verticalAlign=middle;resizable=0;points=[];autosize=1;strokeColor=none;fillColor=none;" parent="fJM_3uWOo-8UuLEOxcHD-88" vertex="1">
          <mxGeometry x="63.120000000000005" y="13" width="100" height="30" as="geometry" />
        </mxCell>
        <mxCell id="fJM_3uWOo-8UuLEOxcHD-92" value="&lt;font style=&quot;font-size: 9px;&quot;&gt;&amp;lt;&amp;lt;&lt;/font&gt;&lt;font style=&quot;font-size: 11px;&quot;&gt;include&lt;/font&gt;&lt;font style=&quot;font-size: 9px;&quot;&gt;&amp;gt;&amp;gt;&lt;/font&gt;" style="text;html=1;align=center;verticalAlign=middle;resizable=0;points=[];autosize=1;strokeColor=none;fillColor=none;" parent="1" vertex="1">
          <mxGeometry x="525.06" y="1508" width="74" height="26" as="geometry" />
        </mxCell>
        <mxCell id="fJM_3uWOo-8UuLEOxcHD-93" value="" style="endArrow=none;dashed=1;html=1;dashPattern=1 3;strokeWidth=2;rounded=0;entryX=1;entryY=0.5;entryDx=0;entryDy=0;exitX=0;exitY=0;exitDx=0;exitDy=0;" parent="1" source="fJM_3uWOo-8UuLEOxcHD-94" edge="1">
          <mxGeometry width="50" height="50" relative="1" as="geometry">
            <mxPoint x="619.06" y="1514" as="sourcePoint" />
            <mxPoint x="490" y="1537" as="targetPoint" />
          </mxGeometry>
        </mxCell>
        <mxCell id="fJM_3uWOo-8UuLEOxcHD-94" value="S&#39;authentifier" style="ellipse;whiteSpace=wrap;html=1;" parent="1" vertex="1">
          <mxGeometry x="620.25" y="1534" width="120" height="80" as="geometry" />
        </mxCell>
        <mxCell id="fJM_3uWOo-8UuLEOxcHD-95" value="" style="group" parent="1" vertex="1" connectable="0">
          <mxGeometry x="270" y="1580" width="224.25" height="54" as="geometry" />
        </mxCell>
        <mxCell id="fJM_3uWOo-8UuLEOxcHD-96" value="" style="ellipse;whiteSpace=wrap;html=1;verticalAlign=middle;" parent="fJM_3uWOo-8UuLEOxcHD-95" vertex="1">
          <mxGeometry width="224.25" height="54" as="geometry" />
        </mxCell>
        <mxCell id="fJM_3uWOo-8UuLEOxcHD-97" value="Visionner les covoiturages&lt;div&gt;qui se sont mal passés&lt;/div&gt;" style="text;html=1;align=center;verticalAlign=middle;resizable=0;points=[];autosize=1;strokeColor=none;fillColor=none;" parent="fJM_3uWOo-8UuLEOxcHD-95" vertex="1">
          <mxGeometry x="33.120000000000005" y="8" width="160" height="40" as="geometry" />
        </mxCell>
        <mxCell id="fJM_3uWOo-8UuLEOxcHD-99" value="&lt;font style=&quot;font-size: 9px;&quot;&gt;&amp;lt;&amp;lt;&lt;/font&gt;&lt;font style=&quot;font-size: 11px;&quot;&gt;include&lt;/font&gt;&lt;font style=&quot;font-size: 9px;&quot;&gt;&amp;gt;&amp;gt;&lt;/font&gt;" style="text;html=1;align=center;verticalAlign=middle;resizable=0;points=[];autosize=1;strokeColor=none;fillColor=none;" parent="1" vertex="1">
          <mxGeometry x="526.25" y="1604" width="74" height="26" as="geometry" />
        </mxCell>
        <mxCell id="fJM_3uWOo-8UuLEOxcHD-100" value="" style="endArrow=none;dashed=1;html=1;dashPattern=1 3;strokeWidth=2;rounded=0;entryX=1;entryY=0.5;entryDx=0;entryDy=0;" parent="1" edge="1">
          <mxGeometry width="50" height="50" relative="1" as="geometry">
            <mxPoint x="620.25" y="1580" as="sourcePoint" />
            <mxPoint x="491" y="1603" as="targetPoint" />
          </mxGeometry>
        </mxCell>
        <mxCell id="fJM_3uWOo-8UuLEOxcHD-101" value="&lt;font style=&quot;font-size: 10px;&quot;&gt;Utilisateur&lt;/font&gt;&lt;div&gt;Administrateur&lt;/div&gt;" style="shape=umlActor;verticalLabelPosition=bottom;verticalAlign=top;html=1;outlineConnect=0;" parent="1" vertex="1">
          <mxGeometry x="79.99999999999999" y="1868.5" width="55" height="110" as="geometry" />
        </mxCell>
        <mxCell id="fJM_3uWOo-8UuLEOxcHD-102" value="" style="strokeWidth=1;html=1;shape=mxgraph.flowchart.annotation_2;align=left;labelPosition=right;pointerEvents=1;" parent="1" vertex="1">
          <mxGeometry x="141.81" y="1787" width="130" height="273" as="geometry" />
        </mxCell>
        <mxCell id="fJM_3uWOo-8UuLEOxcHD-103" value="" style="group" parent="1" vertex="1" connectable="0">
          <mxGeometry x="272.06" y="1760" width="224.25" height="54" as="geometry" />
        </mxCell>
        <mxCell id="fJM_3uWOo-8UuLEOxcHD-104" value="" style="ellipse;whiteSpace=wrap;html=1;verticalAlign=middle;" parent="fJM_3uWOo-8UuLEOxcHD-103" vertex="1">
          <mxGeometry width="224.25" height="54" as="geometry" />
        </mxCell>
        <mxCell id="fJM_3uWOo-8UuLEOxcHD-105" value="Concevoir les comptes&lt;div&gt;des employés&lt;/div&gt;" style="text;html=1;align=center;verticalAlign=middle;resizable=0;points=[];autosize=1;strokeColor=none;fillColor=none;" parent="fJM_3uWOo-8UuLEOxcHD-103" vertex="1">
          <mxGeometry x="43.120000000000005" y="8" width="140" height="40" as="geometry" />
        </mxCell>
        <mxCell id="fJM_3uWOo-8UuLEOxcHD-106" value="&lt;font style=&quot;font-size: 9px;&quot;&gt;&amp;lt;&amp;lt;&lt;/font&gt;&lt;font style=&quot;font-size: 11px;&quot;&gt;include&lt;/font&gt;&lt;font style=&quot;font-size: 9px;&quot;&gt;&amp;gt;&amp;gt;&lt;/font&gt;" style="text;html=1;align=center;verticalAlign=middle;resizable=0;points=[];autosize=1;strokeColor=none;fillColor=none;" parent="1" vertex="1">
          <mxGeometry x="525.06" y="1750" width="74" height="26" as="geometry" />
        </mxCell>
        <mxCell id="fJM_3uWOo-8UuLEOxcHD-107" value="" style="endArrow=none;dashed=1;html=1;dashPattern=1 3;strokeWidth=2;rounded=0;entryX=1;entryY=0.5;entryDx=0;entryDy=0;exitX=0;exitY=0;exitDx=0;exitDy=0;" parent="1" source="fJM_3uWOo-8UuLEOxcHD-108" edge="1">
          <mxGeometry width="50" height="50" relative="1" as="geometry">
            <mxPoint x="619.06" y="1756" as="sourcePoint" />
            <mxPoint x="490" y="1779" as="targetPoint" />
          </mxGeometry>
        </mxCell>
        <mxCell id="fJM_3uWOo-8UuLEOxcHD-108" value="Création du compte&lt;div&gt;en amont (pas depuis&lt;/div&gt;&lt;div&gt;l&#39;application)&lt;/div&gt;" style="ellipse;whiteSpace=wrap;html=1;" parent="1" vertex="1">
          <mxGeometry x="620.25" y="1776" width="120" height="80" as="geometry" />
        </mxCell>
        <mxCell id="fJM_3uWOo-8UuLEOxcHD-109" value="" style="group" parent="1" vertex="1" connectable="0">
          <mxGeometry x="272" y="1824" width="224.25" height="54" as="geometry" />
        </mxCell>
        <mxCell id="fJM_3uWOo-8UuLEOxcHD-110" value="" style="ellipse;whiteSpace=wrap;html=1;verticalAlign=middle;" parent="fJM_3uWOo-8UuLEOxcHD-109" vertex="1">
          <mxGeometry width="224.25" height="54" as="geometry" />
        </mxCell>
        <mxCell id="fJM_3uWOo-8UuLEOxcHD-111" value="Visionner le nombre de covoiturage&lt;div&gt;par jour/employé&lt;/div&gt;" style="text;html=1;align=center;verticalAlign=middle;resizable=0;points=[];autosize=1;strokeColor=none;fillColor=none;" parent="fJM_3uWOo-8UuLEOxcHD-109" vertex="1">
          <mxGeometry x="8.120000000000005" y="8" width="210" height="40" as="geometry" />
        </mxCell>
        <mxCell id="fJM_3uWOo-8UuLEOxcHD-112" value="&lt;font style=&quot;font-size: 9px;&quot;&gt;&amp;lt;&amp;lt;&lt;/font&gt;&lt;font style=&quot;font-size: 11px;&quot;&gt;include&lt;/font&gt;&lt;font style=&quot;font-size: 9px;&quot;&gt;&amp;gt;&amp;gt;&lt;/font&gt;" style="text;html=1;align=center;verticalAlign=middle;resizable=0;points=[];autosize=1;strokeColor=none;fillColor=none;" parent="1" vertex="1">
          <mxGeometry x="525.06" y="1842.5" width="74" height="26" as="geometry" />
        </mxCell>
        <mxCell id="fJM_3uWOo-8UuLEOxcHD-113" value="" style="endArrow=none;dashed=1;html=1;dashPattern=1 3;strokeWidth=2;rounded=0;entryX=1;entryY=0.5;entryDx=0;entryDy=0;" parent="1" target="fJM_3uWOo-8UuLEOxcHD-110" edge="1">
          <mxGeometry width="50" height="50" relative="1" as="geometry">
            <mxPoint x="620.25" y="1822" as="sourcePoint" />
            <mxPoint x="491" y="1845" as="targetPoint" />
          </mxGeometry>
        </mxCell>
        <mxCell id="fJM_3uWOo-8UuLEOxcHD-114" value="" style="group" parent="1" vertex="1" connectable="0">
          <mxGeometry x="272" y="1890" width="228.12" height="54" as="geometry" />
        </mxCell>
        <mxCell id="fJM_3uWOo-8UuLEOxcHD-115" value="" style="ellipse;whiteSpace=wrap;html=1;verticalAlign=middle;" parent="fJM_3uWOo-8UuLEOxcHD-114" vertex="1">
          <mxGeometry width="224.25" height="54" as="geometry" />
        </mxCell>
        <mxCell id="fJM_3uWOo-8UuLEOxcHD-116" value="Visionner combien la plateforme gagne&lt;div&gt;des crédits en fonction des jours&lt;/div&gt;" style="text;html=1;align=center;verticalAlign=middle;resizable=0;points=[];autosize=1;strokeColor=none;fillColor=none;" parent="fJM_3uWOo-8UuLEOxcHD-114" vertex="1">
          <mxGeometry x="-1.8799999999999955" y="8" width="230" height="40" as="geometry" />
        </mxCell>
        <mxCell id="fJM_3uWOo-8UuLEOxcHD-117" value="" style="group" parent="1" vertex="1" connectable="0">
          <mxGeometry x="272" y="1956" width="228.12" height="54" as="geometry" />
        </mxCell>
        <mxCell id="fJM_3uWOo-8UuLEOxcHD-118" value="" style="ellipse;whiteSpace=wrap;html=1;verticalAlign=middle;" parent="fJM_3uWOo-8UuLEOxcHD-117" vertex="1">
          <mxGeometry width="224.25" height="54" as="geometry" />
        </mxCell>
        <mxCell id="fJM_3uWOo-8UuLEOxcHD-119" value="Visionner le nombre total de crédit&lt;div&gt;gagné par la plateforme&lt;/div&gt;" style="text;html=1;align=center;verticalAlign=middle;resizable=0;points=[];autosize=1;strokeColor=none;fillColor=none;" parent="fJM_3uWOo-8UuLEOxcHD-117" vertex="1">
          <mxGeometry x="8.120000000000005" y="8" width="210" height="40" as="geometry" />
        </mxCell>
        <mxCell id="fJM_3uWOo-8UuLEOxcHD-120" value="" style="group" parent="1" vertex="1" connectable="0">
          <mxGeometry x="270" y="2034" width="228.12" height="54" as="geometry" />
        </mxCell>
        <mxCell id="fJM_3uWOo-8UuLEOxcHD-121" value="" style="ellipse;whiteSpace=wrap;html=1;verticalAlign=middle;" parent="fJM_3uWOo-8UuLEOxcHD-120" vertex="1">
          <mxGeometry width="224.25" height="54" as="geometry" />
        </mxCell>
        <mxCell id="fJM_3uWOo-8UuLEOxcHD-122" value="Suspendre un compte&lt;div&gt;utilisateur/employé&lt;/div&gt;" style="text;html=1;align=center;verticalAlign=middle;resizable=0;points=[];autosize=1;strokeColor=none;fillColor=none;" parent="fJM_3uWOo-8UuLEOxcHD-120" vertex="1">
          <mxGeometry x="43.120000000000005" y="8" width="140" height="40" as="geometry" />
        </mxCell>
        <mxCell id="fJM_3uWOo-8UuLEOxcHD-123" value="" style="endArrow=none;html=1;rounded=0;entryX=0.999;entryY=0.193;entryDx=0;entryDy=0;entryPerimeter=0;" parent="1" edge="1">
          <mxGeometry width="50" height="50" relative="1" as="geometry">
            <mxPoint x="207.06" y="1256.76" as="sourcePoint" />
            <mxPoint x="272.06" y="1256.76" as="targetPoint" />
          </mxGeometry>
        </mxCell>
        <mxCell id="fJM_3uWOo-8UuLEOxcHD-124" value="" style="endArrow=none;html=1;rounded=0;entryX=0.999;entryY=0.193;entryDx=0;entryDy=0;entryPerimeter=0;" parent="1" edge="1">
          <mxGeometry width="50" height="50" relative="1" as="geometry">
            <mxPoint x="207.06" y="1317.76" as="sourcePoint" />
            <mxPoint x="272.06" y="1317.76" as="targetPoint" />
          </mxGeometry>
        </mxCell>
        <mxCell id="fJM_3uWOo-8UuLEOxcHD-125" value="" style="endArrow=none;html=1;rounded=0;entryX=0.999;entryY=0.193;entryDx=0;entryDy=0;entryPerimeter=0;" parent="1" edge="1">
          <mxGeometry width="50" height="50" relative="1" as="geometry">
            <mxPoint x="207.06" y="1378" as="sourcePoint" />
            <mxPoint x="272.06" y="1378" as="targetPoint" />
          </mxGeometry>
        </mxCell>
        <mxCell id="fJM_3uWOo-8UuLEOxcHD-126" value="" style="endArrow=none;html=1;rounded=0;entryX=0.999;entryY=0.193;entryDx=0;entryDy=0;entryPerimeter=0;" parent="1" edge="1">
          <mxGeometry width="50" height="50" relative="1" as="geometry">
            <mxPoint x="207.06" y="511" as="sourcePoint" />
            <mxPoint x="272.06" y="511" as="targetPoint" />
          </mxGeometry>
        </mxCell>
        <mxCell id="fJM_3uWOo-8UuLEOxcHD-127" value="" style="endArrow=none;html=1;rounded=0;entryX=0.999;entryY=0.193;entryDx=0;entryDy=0;entryPerimeter=0;" parent="1" edge="1">
          <mxGeometry width="50" height="50" relative="1" as="geometry">
            <mxPoint x="207.06" y="581.58" as="sourcePoint" />
            <mxPoint x="272.06" y="581.58" as="targetPoint" />
          </mxGeometry>
        </mxCell>
        <mxCell id="fJM_3uWOo-8UuLEOxcHD-128" value="" style="endArrow=none;html=1;rounded=0;entryX=0.999;entryY=0.193;entryDx=0;entryDy=0;entryPerimeter=0;" parent="1" edge="1">
          <mxGeometry width="50" height="50" relative="1" as="geometry">
            <mxPoint x="207.06" y="651.8000000000001" as="sourcePoint" />
            <mxPoint x="272.06" y="651.8000000000001" as="targetPoint" />
          </mxGeometry>
        </mxCell>
        <mxCell id="fJM_3uWOo-8UuLEOxcHD-129" value="" style="endArrow=none;html=1;rounded=0;entryX=0.999;entryY=0.193;entryDx=0;entryDy=0;entryPerimeter=0;" parent="1" edge="1">
          <mxGeometry width="50" height="50" relative="1" as="geometry">
            <mxPoint x="207.06" y="719.8000000000001" as="sourcePoint" />
            <mxPoint x="272.06" y="719.8000000000001" as="targetPoint" />
          </mxGeometry>
        </mxCell>
        <mxCell id="fJM_3uWOo-8UuLEOxcHD-130" value="" style="endArrow=none;html=1;rounded=0;entryX=0.999;entryY=0.193;entryDx=0;entryDy=0;entryPerimeter=0;" parent="1" edge="1">
          <mxGeometry width="50" height="50" relative="1" as="geometry">
            <mxPoint x="207.06" y="1850.7999999999997" as="sourcePoint" />
            <mxPoint x="272.06" y="1850.7999999999997" as="targetPoint" />
          </mxGeometry>
        </mxCell>
        <mxCell id="fJM_3uWOo-8UuLEOxcHD-131" value="" style="endArrow=none;html=1;rounded=0;entryX=0.999;entryY=0.193;entryDx=0;entryDy=0;entryPerimeter=0;" parent="1" edge="1">
          <mxGeometry width="50" height="50" relative="1" as="geometry">
            <mxPoint x="206.81" y="1916.7999999999997" as="sourcePoint" />
            <mxPoint x="271.81" y="1916.7999999999997" as="targetPoint" />
          </mxGeometry>
        </mxCell>
        <mxCell id="fJM_3uWOo-8UuLEOxcHD-132" value="" style="endArrow=none;html=1;rounded=0;entryX=0.999;entryY=0.193;entryDx=0;entryDy=0;entryPerimeter=0;" parent="1" edge="1">
          <mxGeometry width="50" height="50" relative="1" as="geometry">
            <mxPoint x="207.06" y="1983.9999999999998" as="sourcePoint" />
            <mxPoint x="272.06" y="1983.9999999999998" as="targetPoint" />
          </mxGeometry>
        </mxCell>
        <mxCell id="fJM_3uWOo-8UuLEOxcHD-133" value="&lt;font style=&quot;font-size: 9px;&quot;&gt;&amp;lt;&amp;lt;&lt;/font&gt;&lt;font style=&quot;font-size: 11px;&quot;&gt;include&lt;/font&gt;&lt;font style=&quot;font-size: 9px;&quot;&gt;&amp;gt;&amp;gt;&lt;/font&gt;" style="text;html=1;align=center;verticalAlign=middle;resizable=0;points=[];autosize=1;strokeColor=none;fillColor=none;" parent="1" vertex="1">
          <mxGeometry x="520" y="1900" width="74" height="26" as="geometry" />
        </mxCell>
        <mxCell id="fJM_3uWOo-8UuLEOxcHD-134" value="" style="endArrow=none;dashed=1;html=1;dashPattern=1 3;strokeWidth=2;rounded=0;entryX=0.986;entryY=0.373;entryDx=0;entryDy=0;exitX=0;exitY=1;exitDx=0;exitDy=0;entryPerimeter=0;" parent="1" source="fJM_3uWOo-8UuLEOxcHD-108" target="fJM_3uWOo-8UuLEOxcHD-116" edge="1">
          <mxGeometry width="50" height="50" relative="1" as="geometry">
            <mxPoint x="618.5" y="1890" as="sourcePoint" />
            <mxPoint x="494.25" y="1919" as="targetPoint" />
          </mxGeometry>
        </mxCell>
        <mxCell id="fJM_3uWOo-8UuLEOxcHD-135" value="" style="endArrow=none;dashed=1;html=1;dashPattern=1 3;strokeWidth=2;rounded=0;entryX=1;entryY=0.5;entryDx=0;entryDy=0;exitX=0.498;exitY=1.05;exitDx=0;exitDy=0;exitPerimeter=0;" parent="1" source="fJM_3uWOo-8UuLEOxcHD-108" edge="1">
          <mxGeometry width="50" height="50" relative="1" as="geometry">
            <mxPoint x="680" y="1921.5" as="sourcePoint" />
            <mxPoint x="494.25" y="1984.5" as="targetPoint" />
          </mxGeometry>
        </mxCell>
        <mxCell id="fJM_3uWOo-8UuLEOxcHD-136" value="&lt;font style=&quot;font-size: 9px;&quot;&gt;&amp;lt;&amp;lt;&lt;/font&gt;&lt;font style=&quot;font-size: 11px;&quot;&gt;include&lt;/font&gt;&lt;font style=&quot;font-size: 9px;&quot;&gt;&amp;gt;&amp;gt;&lt;/font&gt;" style="text;html=1;align=center;verticalAlign=middle;resizable=0;points=[];autosize=1;strokeColor=none;fillColor=none;" parent="1" vertex="1">
          <mxGeometry x="552.25" y="1952.5" width="74" height="26" as="geometry" />
        </mxCell>
        <mxCell id="fJM_3uWOo-8UuLEOxcHD-137" value="" style="endArrow=none;dashed=1;html=1;dashPattern=1 3;strokeWidth=2;rounded=0;entryX=1;entryY=0.5;entryDx=0;entryDy=0;exitX=0.947;exitY=0.74;exitDx=0;exitDy=0;exitPerimeter=0;" parent="1" source="fJM_3uWOo-8UuLEOxcHD-108" edge="1">
          <mxGeometry width="50" height="50" relative="1" as="geometry">
            <mxPoint x="680" y="1935.5" as="sourcePoint" />
            <mxPoint x="494.25" y="2060" as="targetPoint" />
            <Array as="points">
              <mxPoint x="620" y="1980" />
            </Array>
          </mxGeometry>
        </mxCell>
        <mxCell id="fJM_3uWOo-8UuLEOxcHD-138" value="&lt;font style=&quot;font-size: 9px;&quot;&gt;&amp;lt;&amp;lt;&lt;/font&gt;&lt;font style=&quot;font-size: 11px;&quot;&gt;include&lt;/font&gt;&lt;font style=&quot;font-size: 9px;&quot;&gt;&amp;gt;&amp;gt;&lt;/font&gt;" style="text;html=1;align=center;verticalAlign=middle;resizable=0;points=[];autosize=1;strokeColor=none;fillColor=none;" parent="1" vertex="1">
          <mxGeometry x="600.25" y="2000" width="74" height="26" as="geometry" />
        </mxCell>
        <mxCell id="fJM_3uWOo-8UuLEOxcHD-139" value="&lt;font style=&quot;font-size: 9px;&quot;&gt;&amp;lt;&amp;lt;&lt;/font&gt;&lt;font style=&quot;font-size: 11px;&quot;&gt;include&lt;/font&gt;&lt;font style=&quot;font-size: 9px;&quot;&gt;&amp;gt;&amp;gt;&lt;/font&gt;" style="text;html=1;align=center;verticalAlign=middle;resizable=0;points=[];autosize=1;strokeColor=none;fillColor=none;" parent="1" vertex="1">
          <mxGeometry x="509.05999999999995" y="573" width="74" height="26" as="geometry" />
        </mxCell>
        <mxCell id="fJM_3uWOo-8UuLEOxcHD-140" value="" style="endArrow=none;dashed=1;html=1;dashPattern=1 3;strokeWidth=2;rounded=0;entryX=1;entryY=0.5;entryDx=0;entryDy=0;exitX=0.276;exitY=0.969;exitDx=0;exitDy=0;exitPerimeter=0;" parent="1" source="fJM_3uWOo-8UuLEOxcHD-64" edge="1">
          <mxGeometry width="50" height="50" relative="1" as="geometry">
            <mxPoint x="623.56" y="555" as="sourcePoint" />
            <mxPoint x="496.31" y="579" as="targetPoint" />
          </mxGeometry>
        </mxCell>
        <mxCell id="fJM_3uWOo-8UuLEOxcHD-141" value="" style="endArrow=none;dashed=1;html=1;dashPattern=1 3;strokeWidth=2;rounded=0;entryX=1;entryY=0.5;entryDx=0;entryDy=0;exitX=0.5;exitY=1;exitDx=0;exitDy=0;" parent="1" source="fJM_3uWOo-8UuLEOxcHD-64" edge="1">
          <mxGeometry width="50" height="50" relative="1" as="geometry">
            <mxPoint x="710" y="520" as="sourcePoint" />
            <mxPoint x="494.25" y="655" as="targetPoint" />
          </mxGeometry>
        </mxCell>
        <mxCell id="fJM_3uWOo-8UuLEOxcHD-142" value="&lt;font style=&quot;font-size: 9px;&quot;&gt;&amp;lt;&amp;lt;&lt;/font&gt;&lt;font style=&quot;font-size: 11px;&quot;&gt;include&lt;/font&gt;&lt;font style=&quot;font-size: 9px;&quot;&gt;&amp;gt;&amp;gt;&lt;/font&gt;" style="text;html=1;align=center;verticalAlign=middle;resizable=0;points=[];autosize=1;strokeColor=none;fillColor=none;" parent="1" vertex="1">
          <mxGeometry x="531.06" y="625" width="74" height="26" as="geometry" />
        </mxCell>
        <mxCell id="fJM_3uWOo-8UuLEOxcHD-143" value="" style="endArrow=none;dashed=1;html=1;dashPattern=1 3;strokeWidth=2;rounded=0;entryX=1;entryY=0.5;entryDx=0;entryDy=0;exitX=0.722;exitY=0.944;exitDx=0;exitDy=0;exitPerimeter=0;" parent="1" source="fJM_3uWOo-8UuLEOxcHD-64" edge="1">
          <mxGeometry width="50" height="50" relative="1" as="geometry">
            <mxPoint x="688.94" y="583" as="sourcePoint" />
            <mxPoint x="497.19" y="721" as="targetPoint" />
            <Array as="points">
              <mxPoint x="630" y="640" />
            </Array>
          </mxGeometry>
        </mxCell>
        <mxCell id="fJM_3uWOo-8UuLEOxcHD-144" value="" style="endArrow=none;dashed=1;html=1;dashPattern=1 3;strokeWidth=2;rounded=0;entryX=1;entryY=0.5;entryDx=0;entryDy=0;exitX=0.971;exitY=0.653;exitDx=0;exitDy=0;exitPerimeter=0;" parent="1" source="fJM_3uWOo-8UuLEOxcHD-64" edge="1">
          <mxGeometry width="50" height="50" relative="1" as="geometry">
            <mxPoint x="710.06" y="581.91" as="sourcePoint" />
            <mxPoint x="494.25" y="789.91" as="targetPoint" />
            <Array as="points">
              <mxPoint x="627.06" y="708.91" />
            </Array>
          </mxGeometry>
        </mxCell>
        <mxCell id="fJM_3uWOo-8UuLEOxcHD-64" value="S&#39;authentifier" style="ellipse;whiteSpace=wrap;html=1;" parent="1" vertex="1">
          <mxGeometry x="626.25" y="437" width="120" height="80" as="geometry" />
        </mxCell>
        <mxCell id="fJM_3uWOo-8UuLEOxcHD-145" value="&lt;font style=&quot;font-size: 9px;&quot;&gt;&amp;lt;&amp;lt;&lt;/font&gt;&lt;font style=&quot;font-size: 11px;&quot;&gt;include&lt;/font&gt;&lt;font style=&quot;font-size: 9px;&quot;&gt;&amp;gt;&amp;gt;&lt;/font&gt;" style="text;html=1;align=center;verticalAlign=middle;resizable=0;points=[];autosize=1;strokeColor=none;fillColor=none;" parent="1" vertex="1">
          <mxGeometry x="531.06" y="700" width="74" height="26" as="geometry" />
        </mxCell>
      </root>
    </mxGraphModel>
  </diagram>
</mxfile>
